PathFileType	4	(X/Y/Z)	/Users/itak/Documents/Research/Walk-IL/dataset/trc/00496_00183.trc
DataRate	CameraRate	NumFrames	NumMarkers	Units	OrigDataRate	OrigDataStartFrame	OrigNumFrames
100.000000	100.000000	4	53	mm	100.000000	275	734
Frame#	Time	RPSI			LPSI			L3			STRN			T10			C7			CLAV			RBAK			LBAK			LSHO			LUPA			LAEL			LAOL			LWTS			LWPS			LFRA			LIFD			LHPS			LHTS			RSHO			RUPA			RAEL			RAOL			RWTS			RWPS			RFRA			RIFD			RHTS			RHPS			RBHD			LFHD			RFHD			LBHD			LHIP			RHIP			RASI			LASI			LKNE			LTHI			LANK			LTIP			LTOE			LMT1			LMT5			LHEE			RKNE			RTHI			RANK			RTIP			RTOE			RMT1			RMT5			RHEE			
		X1	Y1	Z1	X2	Y2	Z2	X3	Y3	Z3	X4	Y4	Z4	X5	Y5	Z5	X6	Y6	Z6	X7	Y7	Z7	X8	Y8	Z8	X9	Y9	Z9	X10	Y10	Z10	X11	Y11	Z11	X12	Y12	Z12	X13	Y13	Z13	X14	Y14	Z14	X15	Y15	Z15	X16	Y16	Z16	X17	Y17	Z17	X18	Y18	Z18	X19	Y19	Z19	X20	Y20	Z20	X21	Y21	Z21	X22	Y22	Z22	X23	Y23	Z23	X24	Y24	Z24	X25	Y25	Z25	X26	Y26	Z26	X27	Y27	Z27	X28	Y28	Z28	X29	Y29	Z29	X30	Y30	Z30	X31	Y31	Z31	X32	Y32	Z32	X33	Y33	Z33	X34	Y34	Z34	X35	Y35	Z35	X36	Y36	Z36	X37	Y37	Z37	X38	Y38	Z38	X39	Y39	Z39	X40	Y40	Z40	X41	Y41	Z41	X42	Y42	Z42	X43	Y43	Z43	X44	Y44	Z44	X45	Y45	Z45	X46	Y46	Z46	X47	Y47	Z47	X48	Y48	Z48	X49	Y49	Z49	X50	Y50	Z50	X51	Y51	Z51	X52	Y52	Z52	X53	Y53	Z53	

276	2.75	-947.5159912109375	964.8157958984375	-314.9823913574219	-884.9969482421875	959.932861328125	-421.7162170410156	-916.6746215820312	1035.144409179688	-371.8328247070312	-722.8818969726562	1191.90087890625	-281.3476257324219	-934.5863647460938	1139.092895507812	-369.7085266113281	-899.7506103515625	1369.117553710938	-342.1989440917969	-755.666259765625	1287.640258789062	-290.2431030273438	-976.4042358398438	1244.724975585938	-286.2509765625	-891.1072998046875	1319.447998046875	-434.6644897460938	-775.4414672851562	1366.81787109375	-465.2979431152344	-759.7696533203125	1243.047729492188	-530.0712280273438	-732.770263671875	1035.095947265625	-557.043212890625	-831.5252685546875	1024.88623046875	-538.5924072265625	-668.8641967773438	846.5398559570312	-483.2151184082031	-704.8062133789062	814.6679077148438	-564.5216064453125	-708.8154296875	966.0689697265625	-553.4346923828125	-680.1048583984375	688.0613403320312	-477.6932678222656	-691.4909057617188	759.3304443359375	-546.1724243164062	-655.2139282226562	766.7545166015625	-492.9691467285156	-902.7537841796875	1356.366088867188	-184.4426422119141	-938.4061889648438	1286.291259765625	-139.9918975830078	-931.084228515625	1018.062683105469	-97.58152008056641	-972.8416748046875	999.318603515625	-146.2830047607422	-808.505859375	825.3272705078125	-113.6330718994141	-889.1605834960938	799.3553466796875	-77.63076019287109	-923.01708984375	963.412841796875	-90.22179412841797	-801.1194458007812	665.5118408203125	-113.524299621582	-793.63037109375	731.1673583984375	-87.59920501708984	-863.70849609375	727.0895385742188	-72.98256683349609	-902.3228149414062	1513.921142578125	-248.4021759033203	-734.9879150390625	1590.045166015625	-328.4178771972656	-787.2174072265625	1580.887817382812	-212.3311309814453	-850.2614135742188	1519.824096679688	-398.5608825683594	-734.0531616210938	880.9681396484375	-490.5789184570312	-901.5960083007812	871.85107421875	-151.0751953125	-783.576416015625	917.2093505859375	-167.6495208740234	-681.046142578125	917.6495971679688	-386.6310424804688	-766.7223510742188	457.2591857910156	-448.9139404296875	-725.9737548828125	614.1466674804688	-457.6269226074219	-1022.365600585938	121.7710113525391	-574.9412841796875	-847.0653076171875	333.8875732421875	-495.7331848144531	-900.7548828125	39.51298522949219	-458.5112609863281	-968.5899658203125	51.83877182006836	-451.4854431152344	-936.0350341796875	61.76220703125	-551.4681396484375	-1085.176513671875	141.9698791503906	-533.3250122070312	-813.8388061523438	488.1891174316406	-156.8747863769531	-867.6569213867188	744.7481689453125	-131.4306030273438	-819.451904296875	49.88496017456055	-193.7574920654297	-784.1082153320312	342.3474426269531	-161.2818756103516	-619.9291381835938	53.46728897094727	-146.7668914794922	-663.744873046875	52.90410232543945	-209.4151916503906	-723.9691162109375	53.23240661621094	-133.9266967773438	-844.8787231445312	37.19276428222656	-259.0277404785156	
277	2.76	-944.5557250976562	965.075439453125	-311.400634765625	-882.1185913085938	960.2332763671875	-418.2021789550781	-913.8745727539062	1035.32666015625	-368.2156066894531	-720.4542236328125	1192.418701171875	-277.6837158203125	-931.95166015625	1139.204345703125	-366.1716003417969	-897.5078735351562	1369.30810546875	-338.7369384765625	-753.32958984375	1288.093505859375	-286.6706848144531	-974.0101318359375	1244.830322265625	-282.7737731933594	-888.8062744140625	1319.6015625	-431.117919921875	-773.2161865234375	1367.10009765625	-461.8222961425781	-757.3914184570312	1243.307495117188	-526.5224609375	-730.2295532226562	1035.399047851562	-553.4789428710938	-828.8873901367188	1024.99755859375	-534.601318359375	-665.6648559570312	846.9948120117188	-480.0687255859375	-701.7892456054688	815.3931884765625	-561.369384765625	-706.2105102539062	966.4136962890625	-549.9843139648438	-675.2076416015625	688.39013671875	-476.0021362304688	-687.8616333007812	760.1286010742188	-543.5828247070312	-651.3233642578125	767.4513549804688	-490.5480346679688	-900.6319580078125	1356.674560546875	-180.9661865234375	-936.21875	1286.55029296875	-136.5700378417969	-928.607666015625	1018.320678710938	-94.11011505126953	-970.3252563476562	999.5370483398438	-142.8281707763672	-805.9154052734375	825.65283203125	-110.0676116943359	-886.5838623046875	799.6063842773438	-74.12082672119141	-920.52734375	963.6919555664062	-86.71258544921875	-798.4359741210938	665.8627319335938	-110.0779266357422	-790.9940795898438	731.4969482421875	-84.08376312255859	-861.06591796875	727.341552734375	-69.4918212890625	-900.12890625	1514.360107421875	-245.0567932128906	-733.0098876953125	1590.416748046875	-325.6058349609375	-784.982666015625	1581.491455078125	-209.4110717773438	-848.3915405273438	1519.96337890625	-395.3771057128906	-730.90771484375	881.357177734375	-486.855224609375	-899.0565185546875	872.0209350585938	-147.6120452880859	-780.9217529296875	917.41650390625	-163.8599243164062	-678.2635498046875	918.1885375976562	-382.7393493652344	-758.732666015625	457.2039489746094	-444.2454833984375	-720.2780151367188	614.4797973632812	-453.259521484375	-1018.205139160156	126.4971389770508	-573.4462890625	-839.962890625	335.2999267578125	-492.0949401855469	-900.1930541992188	39.32475662231445	-458.2275695800781	-966.779296875	53.19501495361328	-450.8337707519531	-934.1365966796875	63.26789855957031	-550.7578125	-1080.259399414062	147.9287414550781	-531.2025756835938	-812.2919311523438	487.873291015625	-154.5636291503906	-864.9407958984375	744.671142578125	-128.1148071289062	-819.3294067382812	49.86837768554688	-193.6581268310547	-782.9948120117188	341.9757385253906	-159.8927001953125	-619.6098022460938	52.73968887329102	-147.0245361328125	-663.5756225585938	52.69129180908203	-209.5531921386719	-723.7335815429688	53.04875946044922	-133.9672241210938	-844.847412109375	37.21853637695312	-258.9510803222656	
278	2.77	-941.5813598632812	965.315185546875	-307.7525634765625	-879.3997192382812	960.497802734375	-414.7394104003906	-911.1365966796875	1035.51513671875	-364.6178894042969	-717.993408203125	1192.885009765625	-274.1095886230469	-929.3467407226562	1139.327026367188	-362.6405029296875	-895.216796875	1369.505859375	-335.3117980957031	-750.9409790039062	1288.50927734375	-283.1850280761719	-971.5848999023438	1244.964599609375	-279.30615234375	-886.4905395507812	1319.7568359375	-427.6219482421875	-770.9761352539062	1367.3564453125	-458.4244384765625	-755.0423583984375	1243.513671875	-523.0253295898438	-727.7532958984375	1035.655517578125	-549.927978515625	-826.30859375	1025.051147460938	-530.5983276367188	-662.425048828125	847.4605102539062	-476.9559631347656	-698.8463134765625	816.0732421875	-558.168212890625	-703.6498413085938	966.7125244140625	-546.5426025390625	-670.1494140625	688.7285766601562	-474.3213195800781	-684.2342529296875	760.911865234375	-540.9647216796875	-647.326416015625	768.1892700195312	-488.1790466308594	-898.41015625	1356.989379882812	-177.5291595458984	-933.9501953125	1286.832885742188	-133.1660614013672	-926.1553344726562	1018.596313476562	-90.66354370117188	-967.8328857421875	999.7901611328125	-139.3969879150391	-803.3684692382812	825.9839477539062	-106.5269317626953	-884.0535888671875	799.8738403320312	-70.62399291992188	-918.0865478515625	963.9832153320312	-83.21900177001953	-795.8037109375	666.2203369140625	-106.5958251953125	-788.4102172851562	731.8410034179688	-80.55316925048828	-858.4728393554688	727.6105346679688	-65.98899078369141	-897.9029541015625	1514.755249023438	-241.7729034423828	-730.9950561523438	1590.788208007812	-322.8028259277344	-782.7437744140625	1582.073974609375	-206.5166168212891	-846.4793701171875	1520.091918945312	-392.2362670898438	-727.9758911132812	881.6915283203125	-483.2081909179688	-896.337646484375	872.0030517578125	-144.0550231933594	-778.3038330078125	917.5599365234375	-160.1781768798828	-675.6293334960938	918.6812744140625	-378.9957885742188	-750.4107055664062	457.1346740722656	-439.5407104492188	-714.6409301757812	614.7952880859375	-448.9909362792969	-1013.840942382812	131.4575500488281	-571.8543090820312	-832.498046875	336.7597961425781	-488.3367919921875	-899.3922119140625	39.05958557128906	-457.8609313964844	-964.8261108398438	54.87395477294922	-450.1233215332031	-932.0371704101562	65.08870697021484	-549.97314453125	-1074.977783203125	154.1856384277344	-529.0106811523438	-810.8662719726562	487.5479125976562	-152.3103179931641	-862.2977294921875	744.5582275390625	-124.8523254394531	-819.2296752929688	49.8502197265625	-193.5637359619141	-781.9854125976562	341.6007080078125	-158.5281524658203	-619.3419799804688	52.04340362548828	-147.2299194335938	-663.42822265625	52.49792861938477	-209.6696166992188	-723.5261840820312	52.85619735717773	-133.9908599853516	-844.8088989257812	37.23388671875	-258.8998107910156	
279	2.78	-938.5708618164062	965.5169677734375	-304.0362243652344	-876.8472900390625	960.7081909179688	-411.3416748046875	-908.4710083007812	1035.709594726562	-361.055908203125	-715.5062866210938	1193.291625976562	-270.6345520019531	-926.7725219726562	1139.471557617188	-359.117431640625	-892.871337890625	1369.713989257812	-331.9230041503906	-748.4994506835938	1288.88134765625	-279.7880554199219	-969.1263427734375	1245.1328125	-275.845458984375	-884.1569213867188	1319.918212890625	-424.1791381835938	-768.711669921875	1367.588012695312	-455.1021118164062	-752.7244262695312	1243.6669921875	-519.5859985351562	-725.3444213867188	1035.8671875	-546.3995971679688	-823.7904663085938	1025.057006835938	-526.6021118164062	-659.1474609375	847.9446411132812	-473.8811645507812	-695.9819946289062	816.702392578125	-554.9176635742188	-701.1363525390625	966.9730834960938	-543.1165161132812	-664.947265625	689.0947265625	-472.6158142089844	-680.6168212890625	761.6775512695312	-538.30712890625	-643.2394409179688	768.9750366210938	-485.8506774902344	-896.075439453125	1357.310913085938	-174.1309356689453	-931.5879516601562	1287.138427734375	-129.7736968994141	-923.7244873046875	1018.888732910156	-87.24213409423828	-965.36181640625	1000.0810546875	-135.9897918701172	-800.8609619140625	826.3200073242188	-103.0174179077148	-881.5653686523438	800.1574096679688	-67.14823913574219	-915.6882934570312	964.2864379882812	-79.74439239501953	-793.2156372070312	666.5833129882812	-103.0958023071289	-785.8750610351562	732.2000732421875	-77.01850128173828	-855.9229736328125	727.8950805664062	-62.48892593383789	-895.6377563476562	1515.1015625	-238.5502624511719	-728.9395751953125	1591.157592773438	-320.0110168457031	-780.4949951171875	1582.63623046875	-203.6469116210938	-844.51220703125	1520.196899414062	-389.13525390625	-725.2731323242188	881.96630859375	-479.656005859375	-893.4118041992188	871.7689819335938	-140.3993682861328	-775.7260131835938	917.650146484375	-156.6123504638672	-673.1458740234375	919.12841796875	-375.4092712402344	-741.7763061523438	457.068603515625	-434.7938232421875	-709.0616455078125	615.0999145507812	-444.8208618164062	-1009.264587402344	136.6486358642578	-570.1394653320312	-824.6751098632812	338.2815551757812	-484.4443054199219	-898.293212890625	38.70909881591797	-457.3986511230469	-962.6945190429688	56.90267181396484	-449.344970703125	-929.6680297851562	67.30184173583984	-549.1011962890625	-1069.33935546875	160.7100677490234	-526.7528686523438	-809.5513916015625	487.2120056152344	-150.1249694824219	-859.7283325195312	744.4137573242188	-121.6530380249023	-819.1497802734375	49.8303108215332	-193.4774932861328	-781.0668334960938	341.2225036621094	-157.1979064941406	-619.1207275390625	51.37966918945312	-147.3794708251953	-663.3080444335938	52.31365203857422	-209.7665100097656	-723.3406982421875	52.65727233886719	-133.9974060058594	-844.7672729492188	37.2454833984375	-258.8660888671875	
